<mxfile host="app.diagrams.net" agent="Mozilla/5.0 (Macintosh; Intel Mac OS X 10_15_7) AppleWebKit/537.36 (KHTML, like Gecko) Chrome/135.0.0.0 Safari/537.36" version="26.2.13">
  <diagram id="R2lEEEUBdFMjLlhIrx00" name="Page-1">
    <mxGraphModel grid="1" page="1" gridSize="10" guides="1" tooltips="1" connect="1" arrows="1" fold="1" pageScale="1" pageWidth="1200" pageHeight="1920" math="0" shadow="0" extFonts="Permanent Marker^https://fonts.googleapis.com/css?family=Permanent+Marker">
      <root>
        <mxCell id="0" />
        <mxCell id="1" parent="0" />
        <mxCell id="em9scLnAM5rUAsB2EZah-128" style="edgeStyle=none;curved=1;rounded=0;orthogonalLoop=1;jettySize=auto;html=1;exitX=1;exitY=0.5;exitDx=0;exitDy=0;entryX=0;entryY=0.5;entryDx=0;entryDy=0;fontSize=12;startSize=8;endSize=8;endArrow=none;startFill=0;" edge="1" parent="1" source="em9scLnAM5rUAsB2EZah-1" target="em9scLnAM5rUAsB2EZah-127">
          <mxGeometry relative="1" as="geometry" />
        </mxCell>
        <mxCell id="em9scLnAM5rUAsB2EZah-1" value="Customer" style="rounded=0;whiteSpace=wrap;html=1;" vertex="1" parent="1">
          <mxGeometry x="319" y="200" width="120" height="60" as="geometry" />
        </mxCell>
        <mxCell id="em9scLnAM5rUAsB2EZah-2" value="Name" style="ellipse;whiteSpace=wrap;html=1;" vertex="1" parent="1">
          <mxGeometry x="169" y="230" width="120" height="80" as="geometry" />
        </mxCell>
        <mxCell id="em9scLnAM5rUAsB2EZah-3" value="Contact Information" style="ellipse;whiteSpace=wrap;html=1;" vertex="1" parent="1">
          <mxGeometry x="499" y="150" width="120" height="80" as="geometry" />
        </mxCell>
        <mxCell id="em9scLnAM5rUAsB2EZah-7" value="" style="endArrow=none;html=1;rounded=0;fontSize=12;startSize=8;endSize=8;curved=1;entryX=1;entryY=0.5;entryDx=0;entryDy=0;exitX=0;exitY=0.5;exitDx=0;exitDy=0;" edge="1" parent="1" source="em9scLnAM5rUAsB2EZah-1" target="em9scLnAM5rUAsB2EZah-2">
          <mxGeometry width="50" height="50" relative="1" as="geometry">
            <mxPoint x="229" y="340" as="sourcePoint" />
            <mxPoint x="279" y="290" as="targetPoint" />
          </mxGeometry>
        </mxCell>
        <mxCell id="em9scLnAM5rUAsB2EZah-8" value="" style="endArrow=none;html=1;rounded=0;fontSize=12;startSize=8;endSize=8;curved=1;entryX=0;entryY=0.5;entryDx=0;entryDy=0;exitX=1;exitY=0.5;exitDx=0;exitDy=0;" edge="1" parent="1" source="em9scLnAM5rUAsB2EZah-1" target="em9scLnAM5rUAsB2EZah-3">
          <mxGeometry width="50" height="50" relative="1" as="geometry">
            <mxPoint x="289" y="370" as="sourcePoint" />
            <mxPoint x="289" y="340" as="targetPoint" />
          </mxGeometry>
        </mxCell>
        <mxCell id="em9scLnAM5rUAsB2EZah-9" value="first name" style="ellipse;whiteSpace=wrap;html=1;" vertex="1" parent="1">
          <mxGeometry x="89" y="110" width="120" height="80" as="geometry" />
        </mxCell>
        <mxCell id="em9scLnAM5rUAsB2EZah-10" value="last name" style="ellipse;whiteSpace=wrap;html=1;" vertex="1" parent="1">
          <mxGeometry x="239" y="110" width="120" height="80" as="geometry" />
        </mxCell>
        <mxCell id="em9scLnAM5rUAsB2EZah-11" value="" style="endArrow=none;html=1;rounded=0;fontSize=12;startSize=8;endSize=8;curved=1;entryX=0.5;entryY=1;entryDx=0;entryDy=0;exitX=0.5;exitY=0;exitDx=0;exitDy=0;" edge="1" parent="1" source="em9scLnAM5rUAsB2EZah-2" target="em9scLnAM5rUAsB2EZah-9">
          <mxGeometry width="50" height="50" relative="1" as="geometry">
            <mxPoint x="204" y="230" as="sourcePoint" />
            <mxPoint x="254" y="180" as="targetPoint" />
          </mxGeometry>
        </mxCell>
        <mxCell id="em9scLnAM5rUAsB2EZah-12" value="" style="endArrow=none;html=1;rounded=0;fontSize=12;startSize=8;endSize=8;curved=1;entryX=0.5;entryY=1;entryDx=0;entryDy=0;exitX=0.5;exitY=0;exitDx=0;exitDy=0;" edge="1" parent="1" source="em9scLnAM5rUAsB2EZah-2">
          <mxGeometry width="50" height="50" relative="1" as="geometry">
            <mxPoint x="379" y="230" as="sourcePoint" />
            <mxPoint x="299" y="190" as="targetPoint" />
          </mxGeometry>
        </mxCell>
        <mxCell id="em9scLnAM5rUAsB2EZah-13" value="phone number" style="ellipse;whiteSpace=wrap;html=1;" vertex="1" parent="1">
          <mxGeometry x="439" y="55" width="120" height="80" as="geometry" />
        </mxCell>
        <mxCell id="em9scLnAM5rUAsB2EZah-14" value="email" style="ellipse;whiteSpace=wrap;html=1;" vertex="1" parent="1">
          <mxGeometry x="570" y="55" width="120" height="80" as="geometry" />
        </mxCell>
        <mxCell id="em9scLnAM5rUAsB2EZah-15" value="" style="endArrow=none;html=1;rounded=0;fontSize=12;startSize=8;endSize=8;curved=1;entryX=0.5;entryY=1;entryDx=0;entryDy=0;exitX=0.5;exitY=0;exitDx=0;exitDy=0;" edge="1" parent="1" source="em9scLnAM5rUAsB2EZah-3" target="em9scLnAM5rUAsB2EZah-13">
          <mxGeometry width="50" height="50" relative="1" as="geometry">
            <mxPoint x="580" y="180" as="sourcePoint" />
            <mxPoint x="500" y="140" as="targetPoint" />
          </mxGeometry>
        </mxCell>
        <mxCell id="em9scLnAM5rUAsB2EZah-16" value="" style="endArrow=none;html=1;rounded=0;fontSize=12;startSize=8;endSize=8;curved=1;entryX=0.5;entryY=1;entryDx=0;entryDy=0;exitX=0.5;exitY=0;exitDx=0;exitDy=0;" edge="1" parent="1" source="em9scLnAM5rUAsB2EZah-3" target="em9scLnAM5rUAsB2EZah-14">
          <mxGeometry width="50" height="50" relative="1" as="geometry">
            <mxPoint x="650" y="175" as="sourcePoint" />
            <mxPoint x="720" y="135" as="targetPoint" />
          </mxGeometry>
        </mxCell>
        <mxCell id="em9scLnAM5rUAsB2EZah-17" value="Customer Addresses" style="rounded=0;whiteSpace=wrap;html=1;" vertex="1" parent="1">
          <mxGeometry x="319" y="420" width="120" height="60" as="geometry" />
        </mxCell>
        <mxCell id="em9scLnAM5rUAsB2EZah-18" value="&lt;u&gt;Customer ID&lt;/u&gt;" style="ellipse;whiteSpace=wrap;html=1;" vertex="1" parent="1">
          <mxGeometry x="319" y="20" width="120" height="80" as="geometry" />
        </mxCell>
        <mxCell id="em9scLnAM5rUAsB2EZah-20" value="&lt;u&gt;Address ID&lt;/u&gt;" style="ellipse;whiteSpace=wrap;html=1;" vertex="1" parent="1">
          <mxGeometry x="339" y="510" width="120" height="80" as="geometry" />
        </mxCell>
        <mxCell id="em9scLnAM5rUAsB2EZah-21" value="" style="endArrow=none;html=1;rounded=0;fontSize=12;startSize=8;endSize=8;curved=1;entryX=0.5;entryY=1;entryDx=0;entryDy=0;exitX=0.5;exitY=0;exitDx=0;exitDy=0;" edge="1" parent="1" source="em9scLnAM5rUAsB2EZah-20" target="em9scLnAM5rUAsB2EZah-17">
          <mxGeometry width="50" height="50" relative="1" as="geometry">
            <mxPoint x="379" y="520" as="sourcePoint" />
            <mxPoint x="379" y="730" as="targetPoint" />
          </mxGeometry>
        </mxCell>
        <mxCell id="em9scLnAM5rUAsB2EZah-22" value="Lives at" style="rhombus;whiteSpace=wrap;html=1;" vertex="1" parent="1">
          <mxGeometry x="339" y="300" width="80" height="80" as="geometry" />
        </mxCell>
        <mxCell id="em9scLnAM5rUAsB2EZah-24" value="" style="endArrow=none;html=1;rounded=0;fontSize=12;startSize=8;endSize=8;curved=1;exitX=0.5;exitY=0;exitDx=0;exitDy=0;entryX=0.5;entryY=1;entryDx=0;entryDy=0;" edge="1" parent="1" source="em9scLnAM5rUAsB2EZah-22" target="em9scLnAM5rUAsB2EZah-1">
          <mxGeometry width="50" height="50" relative="1" as="geometry">
            <mxPoint x="369" y="410" as="sourcePoint" />
            <mxPoint x="419" y="360" as="targetPoint" />
          </mxGeometry>
        </mxCell>
        <mxCell id="em9scLnAM5rUAsB2EZah-25" value="" style="endArrow=none;html=1;rounded=0;fontSize=12;startSize=8;endSize=8;curved=1;exitX=0.5;exitY=0;exitDx=0;exitDy=0;entryX=0.5;entryY=1;entryDx=0;entryDy=0;" edge="1" parent="1">
          <mxGeometry width="50" height="50" relative="1" as="geometry">
            <mxPoint x="378.5" y="420" as="sourcePoint" />
            <mxPoint x="378.5" y="380" as="targetPoint" />
          </mxGeometry>
        </mxCell>
        <mxCell id="em9scLnAM5rUAsB2EZah-26" value="(1)" style="text;html=1;align=center;verticalAlign=middle;whiteSpace=wrap;rounded=0;" vertex="1" parent="1">
          <mxGeometry x="369" y="260" width="60" height="30" as="geometry" />
        </mxCell>
        <mxCell id="em9scLnAM5rUAsB2EZah-27" value="(M)" style="text;html=1;align=center;verticalAlign=middle;whiteSpace=wrap;rounded=0;" vertex="1" parent="1">
          <mxGeometry x="369" y="390" width="60" height="30" as="geometry" />
        </mxCell>
        <mxCell id="em9scLnAM5rUAsB2EZah-28" value="Address" style="ellipse;whiteSpace=wrap;html=1;" vertex="1" parent="1">
          <mxGeometry x="179" y="410" width="120" height="80" as="geometry" />
        </mxCell>
        <mxCell id="em9scLnAM5rUAsB2EZah-30" value="" style="endArrow=none;html=1;rounded=0;fontSize=12;startSize=8;endSize=8;curved=1;entryX=0;entryY=0.5;entryDx=0;entryDy=0;" edge="1" parent="1" target="em9scLnAM5rUAsB2EZah-17">
          <mxGeometry width="50" height="50" relative="1" as="geometry">
            <mxPoint x="299" y="450" as="sourcePoint" />
            <mxPoint x="349" y="400" as="targetPoint" />
          </mxGeometry>
        </mxCell>
        <mxCell id="em9scLnAM5rUAsB2EZah-31" value="postal code" style="ellipse;whiteSpace=wrap;html=1;" vertex="1" parent="1">
          <mxGeometry x="39" y="330" width="120" height="80" as="geometry" />
        </mxCell>
        <mxCell id="em9scLnAM5rUAsB2EZah-32" value="street address" style="ellipse;whiteSpace=wrap;html=1;" vertex="1" parent="1">
          <mxGeometry x="39" y="430" width="120" height="80" as="geometry" />
        </mxCell>
        <mxCell id="em9scLnAM5rUAsB2EZah-33" value="city" style="ellipse;whiteSpace=wrap;html=1;" vertex="1" parent="1">
          <mxGeometry x="69" y="540" width="120" height="80" as="geometry" />
        </mxCell>
        <mxCell id="em9scLnAM5rUAsB2EZah-34" value="state" style="ellipse;whiteSpace=wrap;html=1;" vertex="1" parent="1">
          <mxGeometry x="209" y="540" width="120" height="80" as="geometry" />
        </mxCell>
        <mxCell id="em9scLnAM5rUAsB2EZah-35" value="" style="endArrow=none;html=1;rounded=0;fontSize=12;startSize=8;endSize=8;curved=1;entryX=1;entryY=0.5;entryDx=0;entryDy=0;exitX=0.5;exitY=0;exitDx=0;exitDy=0;" edge="1" parent="1" source="em9scLnAM5rUAsB2EZah-28" target="em9scLnAM5rUAsB2EZah-31">
          <mxGeometry width="50" height="50" relative="1" as="geometry">
            <mxPoint x="209" y="400" as="sourcePoint" />
            <mxPoint x="259" y="350" as="targetPoint" />
          </mxGeometry>
        </mxCell>
        <mxCell id="em9scLnAM5rUAsB2EZah-36" value="" style="endArrow=none;html=1;rounded=0;fontSize=12;startSize=8;endSize=8;curved=1;" edge="1" parent="1">
          <mxGeometry width="50" height="50" relative="1" as="geometry">
            <mxPoint x="159" y="470" as="sourcePoint" />
            <mxPoint x="179" y="450" as="targetPoint" />
          </mxGeometry>
        </mxCell>
        <mxCell id="em9scLnAM5rUAsB2EZah-37" value="" style="endArrow=none;html=1;rounded=0;fontSize=12;startSize=8;endSize=8;curved=1;entryX=0.5;entryY=1;entryDx=0;entryDy=0;" edge="1" parent="1" target="em9scLnAM5rUAsB2EZah-28">
          <mxGeometry width="50" height="50" relative="1" as="geometry">
            <mxPoint x="129" y="540" as="sourcePoint" />
            <mxPoint x="179" y="490" as="targetPoint" />
          </mxGeometry>
        </mxCell>
        <mxCell id="em9scLnAM5rUAsB2EZah-38" value="" style="endArrow=none;html=1;rounded=0;fontSize=12;startSize=8;endSize=8;curved=1;entryX=0.5;entryY=1;entryDx=0;entryDy=0;" edge="1" parent="1" target="em9scLnAM5rUAsB2EZah-28">
          <mxGeometry width="50" height="50" relative="1" as="geometry">
            <mxPoint x="269" y="540" as="sourcePoint" />
            <mxPoint x="319" y="490" as="targetPoint" />
          </mxGeometry>
        </mxCell>
        <mxCell id="em9scLnAM5rUAsB2EZah-93" style="edgeStyle=none;curved=1;rounded=0;orthogonalLoop=1;jettySize=auto;html=1;exitX=0.5;exitY=1;exitDx=0;exitDy=0;entryX=0.5;entryY=0;entryDx=0;entryDy=0;fontSize=12;startSize=8;endSize=8;endArrow=none;startFill=0;" edge="1" parent="1" source="em9scLnAM5rUAsB2EZah-39" target="em9scLnAM5rUAsB2EZah-91">
          <mxGeometry relative="1" as="geometry" />
        </mxCell>
        <mxCell id="em9scLnAM5rUAsB2EZah-162" style="edgeStyle=none;curved=1;rounded=0;orthogonalLoop=1;jettySize=auto;html=1;exitX=1;exitY=0.5;exitDx=0;exitDy=0;entryX=0;entryY=0;entryDx=0;entryDy=0;fontSize=12;startSize=8;endSize=8;endArrow=none;startFill=0;" edge="1" parent="1" source="em9scLnAM5rUAsB2EZah-39" target="em9scLnAM5rUAsB2EZah-156">
          <mxGeometry relative="1" as="geometry" />
        </mxCell>
        <mxCell id="em9scLnAM5rUAsB2EZah-39" value="Restaurant" style="rounded=0;whiteSpace=wrap;html=1;" vertex="1" parent="1">
          <mxGeometry x="329" y="780" width="120" height="60" as="geometry" />
        </mxCell>
        <mxCell id="em9scLnAM5rUAsB2EZah-40" value="&lt;u&gt;Restaurant ID&lt;/u&gt;" style="ellipse;whiteSpace=wrap;html=1;" vertex="1" parent="1">
          <mxGeometry x="329" y="670" width="120" height="80" as="geometry" />
        </mxCell>
        <mxCell id="em9scLnAM5rUAsB2EZah-41" value="" style="endArrow=none;html=1;rounded=0;fontSize=12;startSize=8;endSize=8;curved=1;" edge="1" parent="1">
          <mxGeometry width="50" height="50" relative="1" as="geometry">
            <mxPoint x="389" y="750" as="sourcePoint" />
            <mxPoint x="389" y="780" as="targetPoint" />
          </mxGeometry>
        </mxCell>
        <mxCell id="em9scLnAM5rUAsB2EZah-43" value="" style="endArrow=none;html=1;rounded=0;fontSize=12;startSize=8;endSize=8;curved=1;entryX=0.5;entryY=1;entryDx=0;entryDy=0;exitX=0.5;exitY=1;exitDx=0;exitDy=0;" edge="1" parent="1" source="em9scLnAM5rUAsB2EZah-44">
          <mxGeometry width="50" height="50" relative="1" as="geometry">
            <mxPoint x="300" y="760" as="sourcePoint" />
            <mxPoint x="329" y="810" as="targetPoint" />
          </mxGeometry>
        </mxCell>
        <mxCell id="em9scLnAM5rUAsB2EZah-44" value="name" style="ellipse;whiteSpace=wrap;html=1;" vertex="1" parent="1">
          <mxGeometry x="199" y="660" width="120" height="80" as="geometry" />
        </mxCell>
        <mxCell id="em9scLnAM5rUAsB2EZah-45" value="Location" style="ellipse;whiteSpace=wrap;html=1;" vertex="1" parent="1">
          <mxGeometry x="189" y="770" width="120" height="80" as="geometry" />
        </mxCell>
        <mxCell id="em9scLnAM5rUAsB2EZah-46" value="" style="endArrow=none;html=1;rounded=0;fontSize=12;startSize=8;endSize=8;curved=1;entryX=0;entryY=0.5;entryDx=0;entryDy=0;" edge="1" parent="1">
          <mxGeometry width="50" height="50" relative="1" as="geometry">
            <mxPoint x="309" y="810" as="sourcePoint" />
            <mxPoint x="329" y="810" as="targetPoint" />
          </mxGeometry>
        </mxCell>
        <mxCell id="em9scLnAM5rUAsB2EZah-47" value="postal code" style="ellipse;whiteSpace=wrap;html=1;" vertex="1" parent="1">
          <mxGeometry x="49" y="690" width="120" height="80" as="geometry" />
        </mxCell>
        <mxCell id="em9scLnAM5rUAsB2EZah-48" value="street address" style="ellipse;whiteSpace=wrap;html=1;" vertex="1" parent="1">
          <mxGeometry x="20" y="780" width="120" height="80" as="geometry" />
        </mxCell>
        <mxCell id="em9scLnAM5rUAsB2EZah-49" value="city" style="ellipse;whiteSpace=wrap;html=1;" vertex="1" parent="1">
          <mxGeometry x="20" y="875" width="120" height="80" as="geometry" />
        </mxCell>
        <mxCell id="em9scLnAM5rUAsB2EZah-50" value="state" style="ellipse;whiteSpace=wrap;html=1;" vertex="1" parent="1">
          <mxGeometry x="150" y="880" width="120" height="80" as="geometry" />
        </mxCell>
        <mxCell id="em9scLnAM5rUAsB2EZah-51" value="" style="endArrow=none;html=1;rounded=0;fontSize=12;startSize=8;endSize=8;curved=1;entryX=1;entryY=0.5;entryDx=0;entryDy=0;exitX=0.5;exitY=0;exitDx=0;exitDy=0;" edge="1" parent="1" source="em9scLnAM5rUAsB2EZah-45" target="em9scLnAM5rUAsB2EZah-47">
          <mxGeometry width="50" height="50" relative="1" as="geometry">
            <mxPoint x="219" y="760" as="sourcePoint" />
            <mxPoint x="269" y="710" as="targetPoint" />
          </mxGeometry>
        </mxCell>
        <mxCell id="em9scLnAM5rUAsB2EZah-52" value="" style="endArrow=none;html=1;rounded=0;fontSize=12;startSize=8;endSize=8;curved=1;exitX=1;exitY=0.5;exitDx=0;exitDy=0;" edge="1" parent="1" source="em9scLnAM5rUAsB2EZah-48">
          <mxGeometry width="50" height="50" relative="1" as="geometry">
            <mxPoint x="169" y="830" as="sourcePoint" />
            <mxPoint x="189" y="810" as="targetPoint" />
          </mxGeometry>
        </mxCell>
        <mxCell id="em9scLnAM5rUAsB2EZah-53" value="" style="endArrow=none;html=1;rounded=0;fontSize=12;startSize=8;endSize=8;curved=1;entryX=0.5;entryY=1;entryDx=0;entryDy=0;exitX=0.5;exitY=0;exitDx=0;exitDy=0;" edge="1" parent="1" source="em9scLnAM5rUAsB2EZah-49" target="em9scLnAM5rUAsB2EZah-45">
          <mxGeometry width="50" height="50" relative="1" as="geometry">
            <mxPoint x="139" y="900" as="sourcePoint" />
            <mxPoint x="189" y="850" as="targetPoint" />
          </mxGeometry>
        </mxCell>
        <mxCell id="em9scLnAM5rUAsB2EZah-54" value="" style="endArrow=none;html=1;rounded=0;fontSize=12;startSize=8;endSize=8;curved=1;entryX=0.5;entryY=1;entryDx=0;entryDy=0;exitX=0.5;exitY=0;exitDx=0;exitDy=0;" edge="1" parent="1" source="em9scLnAM5rUAsB2EZah-50" target="em9scLnAM5rUAsB2EZah-45">
          <mxGeometry width="50" height="50" relative="1" as="geometry">
            <mxPoint x="279" y="900" as="sourcePoint" />
            <mxPoint x="329" y="850" as="targetPoint" />
          </mxGeometry>
        </mxCell>
        <mxCell id="em9scLnAM5rUAsB2EZah-57" value="" style="endArrow=none;html=1;rounded=0;fontSize=12;startSize=8;endSize=8;curved=1;entryX=0.5;entryY=1;entryDx=0;entryDy=0;exitX=0.5;exitY=0;exitDx=0;exitDy=0;" edge="1" parent="1" source="em9scLnAM5rUAsB2EZah-1" target="em9scLnAM5rUAsB2EZah-18">
          <mxGeometry width="50" height="50" relative="1" as="geometry">
            <mxPoint x="374" y="200" as="sourcePoint" />
            <mxPoint x="424" y="150" as="targetPoint" />
          </mxGeometry>
        </mxCell>
        <mxCell id="em9scLnAM5rUAsB2EZah-58" value="Contact Information" style="ellipse;whiteSpace=wrap;html=1;" vertex="1" parent="1">
          <mxGeometry x="469" y="690" width="120" height="80" as="geometry" />
        </mxCell>
        <mxCell id="em9scLnAM5rUAsB2EZah-59" value="" style="endArrow=none;html=1;rounded=0;fontSize=12;startSize=8;endSize=8;curved=1;entryX=0;entryY=0.5;entryDx=0;entryDy=0;exitX=1;exitY=0.5;exitDx=0;exitDy=0;" edge="1" parent="1" source="em9scLnAM5rUAsB2EZah-39" target="em9scLnAM5rUAsB2EZah-58">
          <mxGeometry width="50" height="50" relative="1" as="geometry">
            <mxPoint x="489" y="700" as="sourcePoint" />
            <mxPoint x="339" y="810" as="targetPoint" />
          </mxGeometry>
        </mxCell>
        <mxCell id="em9scLnAM5rUAsB2EZah-60" value="phone number" style="ellipse;whiteSpace=wrap;html=1;" vertex="1" parent="1">
          <mxGeometry x="439" y="580" width="120" height="80" as="geometry" />
        </mxCell>
        <mxCell id="em9scLnAM5rUAsB2EZah-61" value="email" style="ellipse;whiteSpace=wrap;html=1;" vertex="1" parent="1">
          <mxGeometry x="560" y="590" width="120" height="80" as="geometry" />
        </mxCell>
        <mxCell id="em9scLnAM5rUAsB2EZah-62" value="" style="endArrow=none;html=1;rounded=0;fontSize=12;startSize=8;endSize=8;curved=1;entryX=0.5;entryY=1;entryDx=0;entryDy=0;exitX=0.5;exitY=0;exitDx=0;exitDy=0;" edge="1" parent="1" source="em9scLnAM5rUAsB2EZah-58">
          <mxGeometry width="50" height="50" relative="1" as="geometry">
            <mxPoint x="579" y="700" as="sourcePoint" />
            <mxPoint x="499" y="660" as="targetPoint" />
          </mxGeometry>
        </mxCell>
        <mxCell id="em9scLnAM5rUAsB2EZah-63" value="" style="endArrow=none;html=1;rounded=0;fontSize=12;startSize=8;endSize=8;curved=1;exitX=0.5;exitY=0;exitDx=0;exitDy=0;entryX=0.5;entryY=1;entryDx=0;entryDy=0;" edge="1" parent="1" source="em9scLnAM5rUAsB2EZah-58" target="em9scLnAM5rUAsB2EZah-61">
          <mxGeometry width="50" height="50" relative="1" as="geometry">
            <mxPoint x="579" y="700" as="sourcePoint" />
            <mxPoint x="610" y="700" as="targetPoint" />
          </mxGeometry>
        </mxCell>
        <mxCell id="em9scLnAM5rUAsB2EZah-70" value="Menu Item" style="rounded=0;whiteSpace=wrap;html=1;" vertex="1" parent="1">
          <mxGeometry x="670" y="815" width="120" height="60" as="geometry" />
        </mxCell>
        <mxCell id="em9scLnAM5rUAsB2EZah-71" value="availability" style="ellipse;whiteSpace=wrap;html=1;" vertex="1" parent="1">
          <mxGeometry x="800" y="700" width="120" height="80" as="geometry" />
        </mxCell>
        <mxCell id="em9scLnAM5rUAsB2EZah-72" value="description" style="ellipse;whiteSpace=wrap;html=1;" vertex="1" parent="1">
          <mxGeometry x="690" y="640" width="120" height="85" as="geometry" />
        </mxCell>
        <mxCell id="em9scLnAM5rUAsB2EZah-73" value="" style="endArrow=none;html=1;rounded=0;fontSize=12;startSize=8;endSize=8;curved=1;entryX=0;entryY=0.5;entryDx=0;entryDy=0;exitX=0.5;exitY=0;exitDx=0;exitDy=0;" edge="1" parent="1" source="em9scLnAM5rUAsB2EZah-70" target="em9scLnAM5rUAsB2EZah-71">
          <mxGeometry width="50" height="50" relative="1" as="geometry">
            <mxPoint x="815" y="810" as="sourcePoint" />
            <mxPoint x="735" y="770" as="targetPoint" />
          </mxGeometry>
        </mxCell>
        <mxCell id="em9scLnAM5rUAsB2EZah-74" value="" style="endArrow=none;html=1;rounded=0;fontSize=12;startSize=8;endSize=8;curved=1;entryX=0.5;entryY=1;entryDx=0;entryDy=0;exitX=0.5;exitY=0;exitDx=0;exitDy=0;" edge="1" parent="1" source="em9scLnAM5rUAsB2EZah-70" target="em9scLnAM5rUAsB2EZah-72">
          <mxGeometry width="50" height="50" relative="1" as="geometry">
            <mxPoint x="790" y="840" as="sourcePoint" />
            <mxPoint x="885" y="770" as="targetPoint" />
          </mxGeometry>
        </mxCell>
        <mxCell id="em9scLnAM5rUAsB2EZah-75" value="&lt;u&gt;Menu Item ID&lt;/u&gt;" style="ellipse;whiteSpace=wrap;html=1;" vertex="1" parent="1">
          <mxGeometry x="610" y="715" width="120" height="80" as="geometry" />
        </mxCell>
        <mxCell id="em9scLnAM5rUAsB2EZah-76" value="" style="endArrow=none;html=1;rounded=0;fontSize=12;startSize=8;endSize=8;curved=1;entryX=0.5;entryY=0;entryDx=0;entryDy=0;exitX=0.5;exitY=1;exitDx=0;exitDy=0;" edge="1" parent="1" source="em9scLnAM5rUAsB2EZah-75" target="em9scLnAM5rUAsB2EZah-70">
          <mxGeometry width="50" height="50" relative="1" as="geometry">
            <mxPoint x="718.33" y="790" as="sourcePoint" />
            <mxPoint x="718.33" y="820" as="targetPoint" />
          </mxGeometry>
        </mxCell>
        <mxCell id="em9scLnAM5rUAsB2EZah-78" value="Has" style="rhombus;whiteSpace=wrap;html=1;" vertex="1" parent="1">
          <mxGeometry x="529" y="795" width="80" height="80" as="geometry" />
        </mxCell>
        <mxCell id="em9scLnAM5rUAsB2EZah-79" value="(M)" style="text;html=1;align=center;verticalAlign=middle;whiteSpace=wrap;rounded=0;" vertex="1" parent="1">
          <mxGeometry x="619" y="810" width="60" height="30" as="geometry" />
        </mxCell>
        <mxCell id="em9scLnAM5rUAsB2EZah-80" value="(N)" style="text;html=1;align=center;verticalAlign=middle;whiteSpace=wrap;rounded=0;" vertex="1" parent="1">
          <mxGeometry x="459" y="790" width="60" height="30" as="geometry" />
        </mxCell>
        <mxCell id="em9scLnAM5rUAsB2EZah-81" value="price" style="ellipse;whiteSpace=wrap;html=1;" vertex="1" parent="1">
          <mxGeometry x="810" y="795" width="120" height="80" as="geometry" />
        </mxCell>
        <mxCell id="em9scLnAM5rUAsB2EZah-82" value="" style="endArrow=none;html=1;rounded=0;fontSize=12;startSize=8;endSize=8;curved=1;exitX=0.5;exitY=0;exitDx=0;exitDy=0;entryX=0.5;entryY=0;entryDx=0;entryDy=0;" edge="1" parent="1" source="em9scLnAM5rUAsB2EZah-81" target="em9scLnAM5rUAsB2EZah-70">
          <mxGeometry width="50" height="50" relative="1" as="geometry">
            <mxPoint x="670" y="1070" as="sourcePoint" />
            <mxPoint x="790" y="845" as="targetPoint" />
          </mxGeometry>
        </mxCell>
        <mxCell id="em9scLnAM5rUAsB2EZah-83" value="" style="endArrow=none;html=1;rounded=0;fontSize=12;startSize=8;endSize=8;curved=1;entryX=0;entryY=0.5;entryDx=0;entryDy=0;exitX=1;exitY=0.5;exitDx=0;exitDy=0;" edge="1" parent="1" source="em9scLnAM5rUAsB2EZah-39" target="em9scLnAM5rUAsB2EZah-78">
          <mxGeometry width="50" height="50" relative="1" as="geometry">
            <mxPoint x="460" y="905" as="sourcePoint" />
            <mxPoint x="510" y="855" as="targetPoint" />
          </mxGeometry>
        </mxCell>
        <mxCell id="em9scLnAM5rUAsB2EZah-84" value="" style="endArrow=none;html=1;rounded=0;fontSize=12;startSize=8;endSize=8;curved=1;exitX=1;exitY=0.5;exitDx=0;exitDy=0;entryX=0;entryY=0.5;entryDx=0;entryDy=0;" edge="1" parent="1" source="em9scLnAM5rUAsB2EZah-78" target="em9scLnAM5rUAsB2EZah-70">
          <mxGeometry width="50" height="50" relative="1" as="geometry">
            <mxPoint x="600" y="600" as="sourcePoint" />
            <mxPoint x="650" y="840" as="targetPoint" />
          </mxGeometry>
        </mxCell>
        <mxCell id="em9scLnAM5rUAsB2EZah-85" style="edgeStyle=none;curved=1;rounded=0;orthogonalLoop=1;jettySize=auto;html=1;exitX=1;exitY=1;exitDx=0;exitDy=0;fontSize=12;startSize=8;endSize=8;" edge="1" parent="1" source="em9scLnAM5rUAsB2EZah-78" target="em9scLnAM5rUAsB2EZah-78">
          <mxGeometry relative="1" as="geometry" />
        </mxCell>
        <mxCell id="em9scLnAM5rUAsB2EZah-94" style="edgeStyle=none;curved=1;rounded=0;orthogonalLoop=1;jettySize=auto;html=1;exitX=0.5;exitY=0;exitDx=0;exitDy=0;entryX=0.5;entryY=1;entryDx=0;entryDy=0;fontSize=12;startSize=8;endSize=8;endArrow=none;startFill=0;" edge="1" parent="1" source="em9scLnAM5rUAsB2EZah-86" target="em9scLnAM5rUAsB2EZah-91">
          <mxGeometry relative="1" as="geometry" />
        </mxCell>
        <mxCell id="em9scLnAM5rUAsB2EZah-86" value="Cuisine" style="rounded=0;whiteSpace=wrap;html=1;" vertex="1" parent="1">
          <mxGeometry x="219" y="1030" width="120" height="60" as="geometry" />
        </mxCell>
        <mxCell id="em9scLnAM5rUAsB2EZah-87" value="" style="endArrow=none;html=1;rounded=0;fontSize=12;startSize=8;endSize=8;curved=1;entryX=0;entryY=0.5;entryDx=0;entryDy=0;exitX=0.5;exitY=1;exitDx=0;exitDy=0;" edge="1" parent="1" source="em9scLnAM5rUAsB2EZah-88" target="em9scLnAM5rUAsB2EZah-86">
          <mxGeometry width="50" height="50" relative="1" as="geometry">
            <mxPoint x="559" y="950" as="sourcePoint" />
            <mxPoint x="740" y="820" as="targetPoint" />
          </mxGeometry>
        </mxCell>
        <mxCell id="em9scLnAM5rUAsB2EZah-88" value="&lt;u&gt;Cuisine ID&lt;/u&gt;" style="ellipse;whiteSpace=wrap;html=1;" vertex="1" parent="1">
          <mxGeometry x="79" y="970" width="120" height="80" as="geometry" />
        </mxCell>
        <mxCell id="em9scLnAM5rUAsB2EZah-89" value="cuisine name" style="ellipse;whiteSpace=wrap;html=1;" vertex="1" parent="1">
          <mxGeometry x="49" y="1060" width="120" height="80" as="geometry" />
        </mxCell>
        <mxCell id="em9scLnAM5rUAsB2EZah-90" value="" style="endArrow=none;html=1;rounded=0;fontSize=12;startSize=8;endSize=8;curved=1;entryX=0;entryY=0.5;entryDx=0;entryDy=0;exitX=1;exitY=0.5;exitDx=0;exitDy=0;" edge="1" parent="1" source="em9scLnAM5rUAsB2EZah-89" target="em9scLnAM5rUAsB2EZah-86">
          <mxGeometry width="50" height="50" relative="1" as="geometry">
            <mxPoint x="129" y="1170" as="sourcePoint" />
            <mxPoint x="179" y="1120" as="targetPoint" />
          </mxGeometry>
        </mxCell>
        <mxCell id="em9scLnAM5rUAsB2EZah-91" value="Specializes" style="rhombus;whiteSpace=wrap;html=1;" vertex="1" parent="1">
          <mxGeometry x="299" y="905" width="80" height="80" as="geometry" />
        </mxCell>
        <mxCell id="em9scLnAM5rUAsB2EZah-92" style="edgeStyle=none;curved=1;rounded=0;orthogonalLoop=1;jettySize=auto;html=1;exitX=1;exitY=1;exitDx=0;exitDy=0;fontSize=12;startSize=8;endSize=8;" edge="1" parent="1" source="em9scLnAM5rUAsB2EZah-91" target="em9scLnAM5rUAsB2EZah-91">
          <mxGeometry relative="1" as="geometry" />
        </mxCell>
        <mxCell id="em9scLnAM5rUAsB2EZah-95" value="(N)" style="text;html=1;align=center;verticalAlign=middle;whiteSpace=wrap;rounded=0;" vertex="1" parent="1">
          <mxGeometry x="359" y="860" width="60" height="30" as="geometry" />
        </mxCell>
        <mxCell id="em9scLnAM5rUAsB2EZah-96" value="(M)" style="text;html=1;align=center;verticalAlign=middle;whiteSpace=wrap;rounded=0;" vertex="1" parent="1">
          <mxGeometry x="299" y="1000" width="60" height="30" as="geometry" />
        </mxCell>
        <mxCell id="em9scLnAM5rUAsB2EZah-98" value="Delivery Personnel" style="rounded=0;whiteSpace=wrap;html=1;" vertex="1" parent="1">
          <mxGeometry x="260" y="1350" width="120" height="60" as="geometry" />
        </mxCell>
        <mxCell id="em9scLnAM5rUAsB2EZah-99" value="Name" style="ellipse;whiteSpace=wrap;html=1;" vertex="1" parent="1">
          <mxGeometry x="100" y="1350" width="120" height="80" as="geometry" />
        </mxCell>
        <mxCell id="em9scLnAM5rUAsB2EZah-100" value="Contact Information" style="ellipse;whiteSpace=wrap;html=1;" vertex="1" parent="1">
          <mxGeometry x="99" y="1480" width="120" height="80" as="geometry" />
        </mxCell>
        <mxCell id="em9scLnAM5rUAsB2EZah-101" value="" style="endArrow=none;html=1;rounded=0;fontSize=12;startSize=8;endSize=8;curved=1;entryX=1;entryY=0.5;entryDx=0;entryDy=0;exitX=0;exitY=0.5;exitDx=0;exitDy=0;" edge="1" parent="1" source="em9scLnAM5rUAsB2EZah-98" target="em9scLnAM5rUAsB2EZah-99">
          <mxGeometry width="50" height="50" relative="1" as="geometry">
            <mxPoint x="170" y="1490" as="sourcePoint" />
            <mxPoint x="220" y="1440" as="targetPoint" />
          </mxGeometry>
        </mxCell>
        <mxCell id="em9scLnAM5rUAsB2EZah-102" value="" style="endArrow=none;html=1;rounded=0;fontSize=12;startSize=8;endSize=8;curved=1;entryX=0.5;entryY=0;entryDx=0;entryDy=0;exitX=0.5;exitY=1;exitDx=0;exitDy=0;" edge="1" parent="1" source="em9scLnAM5rUAsB2EZah-98" target="em9scLnAM5rUAsB2EZah-100">
          <mxGeometry width="50" height="50" relative="1" as="geometry">
            <mxPoint x="310" y="1420" as="sourcePoint" />
            <mxPoint x="230" y="1490" as="targetPoint" />
          </mxGeometry>
        </mxCell>
        <mxCell id="em9scLnAM5rUAsB2EZah-103" value="first name" style="ellipse;whiteSpace=wrap;html=1;" vertex="1" parent="1">
          <mxGeometry x="30" y="1260" width="120" height="80" as="geometry" />
        </mxCell>
        <mxCell id="em9scLnAM5rUAsB2EZah-104" value="last name" style="ellipse;whiteSpace=wrap;html=1;" vertex="1" parent="1">
          <mxGeometry x="180" y="1260" width="120" height="80" as="geometry" />
        </mxCell>
        <mxCell id="em9scLnAM5rUAsB2EZah-105" value="" style="endArrow=none;html=1;rounded=0;fontSize=12;startSize=8;endSize=8;curved=1;entryX=0.5;entryY=1;entryDx=0;entryDy=0;exitX=0.5;exitY=0;exitDx=0;exitDy=0;" edge="1" parent="1" source="em9scLnAM5rUAsB2EZah-99" target="em9scLnAM5rUAsB2EZah-103">
          <mxGeometry width="50" height="50" relative="1" as="geometry">
            <mxPoint x="145" y="1380" as="sourcePoint" />
            <mxPoint x="195" y="1330" as="targetPoint" />
          </mxGeometry>
        </mxCell>
        <mxCell id="em9scLnAM5rUAsB2EZah-106" value="" style="endArrow=none;html=1;rounded=0;fontSize=12;startSize=8;endSize=8;curved=1;entryX=0.5;entryY=1;entryDx=0;entryDy=0;exitX=0.5;exitY=0;exitDx=0;exitDy=0;" edge="1" parent="1" source="em9scLnAM5rUAsB2EZah-99">
          <mxGeometry width="50" height="50" relative="1" as="geometry">
            <mxPoint x="320" y="1380" as="sourcePoint" />
            <mxPoint x="240" y="1340" as="targetPoint" />
          </mxGeometry>
        </mxCell>
        <mxCell id="em9scLnAM5rUAsB2EZah-107" value="phone number" style="ellipse;whiteSpace=wrap;html=1;" vertex="1" parent="1">
          <mxGeometry x="39" y="1580" width="120" height="80" as="geometry" />
        </mxCell>
        <mxCell id="em9scLnAM5rUAsB2EZah-108" value="email" style="ellipse;whiteSpace=wrap;html=1;" vertex="1" parent="1">
          <mxGeometry x="179" y="1580" width="120" height="80" as="geometry" />
        </mxCell>
        <mxCell id="em9scLnAM5rUAsB2EZah-109" value="" style="endArrow=none;html=1;rounded=0;fontSize=12;startSize=8;endSize=8;curved=1;entryX=0.5;entryY=1;entryDx=0;entryDy=0;exitX=0.5;exitY=0;exitDx=0;exitDy=0;" edge="1" parent="1" source="em9scLnAM5rUAsB2EZah-107" target="em9scLnAM5rUAsB2EZah-100">
          <mxGeometry width="50" height="50" relative="1" as="geometry">
            <mxPoint x="620" y="1490" as="sourcePoint" />
            <mxPoint x="560" y="1440" as="targetPoint" />
          </mxGeometry>
        </mxCell>
        <mxCell id="em9scLnAM5rUAsB2EZah-110" value="" style="endArrow=none;html=1;rounded=0;fontSize=12;startSize=8;endSize=8;curved=1;entryX=0.5;entryY=0;entryDx=0;entryDy=0;exitX=0.5;exitY=1;exitDx=0;exitDy=0;" edge="1" parent="1" source="em9scLnAM5rUAsB2EZah-100" target="em9scLnAM5rUAsB2EZah-108">
          <mxGeometry width="50" height="50" relative="1" as="geometry">
            <mxPoint x="499" y="1520" as="sourcePoint" />
            <mxPoint x="569" y="1480" as="targetPoint" />
          </mxGeometry>
        </mxCell>
        <mxCell id="em9scLnAM5rUAsB2EZah-111" value="&lt;u&gt;Personnel ID&lt;/u&gt;" style="ellipse;whiteSpace=wrap;html=1;" vertex="1" parent="1">
          <mxGeometry x="230" y="1470" width="120" height="80" as="geometry" />
        </mxCell>
        <mxCell id="em9scLnAM5rUAsB2EZah-114" value="" style="endArrow=none;html=1;rounded=0;fontSize=12;startSize=8;endSize=8;curved=1;entryX=0.5;entryY=0;entryDx=0;entryDy=0;exitX=0.5;exitY=1;exitDx=0;exitDy=0;" edge="1" parent="1" source="em9scLnAM5rUAsB2EZah-98" target="em9scLnAM5rUAsB2EZah-111">
          <mxGeometry width="50" height="50" relative="1" as="geometry">
            <mxPoint x="315" y="1350" as="sourcePoint" />
            <mxPoint x="365" y="1300" as="targetPoint" />
          </mxGeometry>
        </mxCell>
        <mxCell id="em9scLnAM5rUAsB2EZah-116" value="Availability" style="ellipse;whiteSpace=wrap;html=1;" vertex="1" parent="1">
          <mxGeometry x="369" y="1440" width="120" height="80" as="geometry" />
        </mxCell>
        <mxCell id="em9scLnAM5rUAsB2EZah-117" value="" style="endArrow=none;html=1;rounded=0;fontSize=12;startSize=8;endSize=8;curved=1;entryX=0.5;entryY=1;entryDx=0;entryDy=0;exitX=0.5;exitY=0;exitDx=0;exitDy=0;" edge="1" parent="1" source="em9scLnAM5rUAsB2EZah-116" target="em9scLnAM5rUAsB2EZah-98">
          <mxGeometry width="50" height="50" relative="1" as="geometry">
            <mxPoint x="421" y="1460" as="sourcePoint" />
            <mxPoint x="341" y="1420" as="targetPoint" />
          </mxGeometry>
        </mxCell>
        <mxCell id="em9scLnAM5rUAsB2EZah-118" value="Payment Method" style="rounded=0;whiteSpace=wrap;html=1;" vertex="1" parent="1">
          <mxGeometry x="730" y="240" width="120" height="60" as="geometry" />
        </mxCell>
        <mxCell id="em9scLnAM5rUAsB2EZah-119" value="payment type" style="ellipse;whiteSpace=wrap;html=1;" vertex="1" parent="1">
          <mxGeometry x="981" y="230" width="120" height="80" as="geometry" />
        </mxCell>
        <mxCell id="em9scLnAM5rUAsB2EZah-120" value="transaction ID" style="ellipse;whiteSpace=wrap;html=1;" vertex="1" parent="1">
          <mxGeometry x="950" y="140" width="120" height="80" as="geometry" />
        </mxCell>
        <mxCell id="em9scLnAM5rUAsB2EZah-121" value="" style="endArrow=none;html=1;rounded=0;fontSize=12;startSize=8;endSize=8;curved=1;entryX=0;entryY=0.5;entryDx=0;entryDy=0;exitX=1;exitY=0.5;exitDx=0;exitDy=0;" edge="1" parent="1" source="em9scLnAM5rUAsB2EZah-118" target="em9scLnAM5rUAsB2EZah-119">
          <mxGeometry width="50" height="50" relative="1" as="geometry">
            <mxPoint x="976" y="215" as="sourcePoint" />
            <mxPoint x="896" y="175" as="targetPoint" />
          </mxGeometry>
        </mxCell>
        <mxCell id="em9scLnAM5rUAsB2EZah-122" value="" style="endArrow=none;html=1;rounded=0;fontSize=12;startSize=8;endSize=8;curved=1;entryX=0;entryY=0.5;entryDx=0;entryDy=0;exitX=1;exitY=0.5;exitDx=0;exitDy=0;" edge="1" parent="1" source="em9scLnAM5rUAsB2EZah-118" target="em9scLnAM5rUAsB2EZah-120">
          <mxGeometry width="50" height="50" relative="1" as="geometry">
            <mxPoint x="951" y="245" as="sourcePoint" />
            <mxPoint x="1046" y="175" as="targetPoint" />
          </mxGeometry>
        </mxCell>
        <mxCell id="em9scLnAM5rUAsB2EZah-123" value="&lt;u&gt;Payment ID&lt;/u&gt;" style="ellipse;whiteSpace=wrap;html=1;" vertex="1" parent="1">
          <mxGeometry x="820" y="115" width="120" height="80" as="geometry" />
        </mxCell>
        <mxCell id="em9scLnAM5rUAsB2EZah-124" value="" style="endArrow=none;html=1;rounded=0;fontSize=12;startSize=8;endSize=8;curved=1;entryX=0.5;entryY=0;entryDx=0;entryDy=0;" edge="1" parent="1" target="em9scLnAM5rUAsB2EZah-118">
          <mxGeometry width="50" height="50" relative="1" as="geometry">
            <mxPoint x="879.33" y="195" as="sourcePoint" />
            <mxPoint x="879.33" y="225" as="targetPoint" />
          </mxGeometry>
        </mxCell>
        <mxCell id="em9scLnAM5rUAsB2EZah-125" value="payment status" style="ellipse;whiteSpace=wrap;html=1;" vertex="1" parent="1">
          <mxGeometry x="931" y="310" width="120" height="80" as="geometry" />
        </mxCell>
        <mxCell id="em9scLnAM5rUAsB2EZah-126" value="" style="endArrow=none;html=1;rounded=0;fontSize=12;startSize=8;endSize=8;curved=1;entryX=1;entryY=0.5;entryDx=0;entryDy=0;exitX=0.5;exitY=0;exitDx=0;exitDy=0;" edge="1" parent="1" source="em9scLnAM5rUAsB2EZah-125" target="em9scLnAM5rUAsB2EZah-118">
          <mxGeometry width="50" height="50" relative="1" as="geometry">
            <mxPoint x="831" y="475" as="sourcePoint" />
            <mxPoint x="881" y="425" as="targetPoint" />
          </mxGeometry>
        </mxCell>
        <mxCell id="em9scLnAM5rUAsB2EZah-129" style="edgeStyle=none;curved=1;rounded=0;orthogonalLoop=1;jettySize=auto;html=1;exitX=1;exitY=0.5;exitDx=0;exitDy=0;entryX=0;entryY=0.5;entryDx=0;entryDy=0;fontSize=12;startSize=8;endSize=8;endArrow=none;startFill=0;" edge="1" parent="1" source="em9scLnAM5rUAsB2EZah-127" target="em9scLnAM5rUAsB2EZah-118">
          <mxGeometry relative="1" as="geometry" />
        </mxCell>
        <mxCell id="em9scLnAM5rUAsB2EZah-127" value="Paid" style="rhombus;whiteSpace=wrap;html=1;" vertex="1" parent="1">
          <mxGeometry x="560" y="230" width="80" height="80" as="geometry" />
        </mxCell>
        <mxCell id="em9scLnAM5rUAsB2EZah-130" value="(1)" style="text;html=1;align=center;verticalAlign=middle;whiteSpace=wrap;rounded=0;" vertex="1" parent="1">
          <mxGeometry x="450" y="215" width="60" height="30" as="geometry" />
        </mxCell>
        <mxCell id="em9scLnAM5rUAsB2EZah-131" value="(M)" style="text;html=1;align=center;verticalAlign=middle;whiteSpace=wrap;rounded=0;" vertex="1" parent="1">
          <mxGeometry x="679" y="240" width="60" height="30" as="geometry" />
        </mxCell>
        <mxCell id="em9scLnAM5rUAsB2EZah-141" style="edgeStyle=none;curved=1;rounded=0;orthogonalLoop=1;jettySize=auto;html=1;exitX=0;exitY=0.5;exitDx=0;exitDy=0;entryX=1;entryY=0.5;entryDx=0;entryDy=0;fontSize=12;startSize=8;endSize=8;endArrow=none;startFill=0;" edge="1" parent="1" source="em9scLnAM5rUAsB2EZah-132" target="em9scLnAM5rUAsB2EZah-137">
          <mxGeometry relative="1" as="geometry" />
        </mxCell>
        <mxCell id="em9scLnAM5rUAsB2EZah-148" value="" style="edgeStyle=none;curved=1;rounded=0;orthogonalLoop=1;jettySize=auto;html=1;fontSize=12;startSize=8;endSize=8;endArrow=none;startFill=0;" edge="1" parent="1" source="em9scLnAM5rUAsB2EZah-132" target="em9scLnAM5rUAsB2EZah-135">
          <mxGeometry relative="1" as="geometry" />
        </mxCell>
        <mxCell id="em9scLnAM5rUAsB2EZah-151" style="edgeStyle=none;curved=1;rounded=0;orthogonalLoop=1;jettySize=auto;html=1;exitX=0.5;exitY=1;exitDx=0;exitDy=0;entryX=0.5;entryY=0;entryDx=0;entryDy=0;fontSize=12;startSize=8;endSize=8;endArrow=none;startFill=0;" edge="1" parent="1" source="em9scLnAM5rUAsB2EZah-132" target="em9scLnAM5rUAsB2EZah-134">
          <mxGeometry relative="1" as="geometry" />
        </mxCell>
        <mxCell id="em9scLnAM5rUAsB2EZah-152" style="edgeStyle=none;curved=1;rounded=0;orthogonalLoop=1;jettySize=auto;html=1;exitX=1;exitY=0.5;exitDx=0;exitDy=0;entryX=0.5;entryY=0;entryDx=0;entryDy=0;fontSize=12;startSize=8;endSize=8;endArrow=none;startFill=0;" edge="1" parent="1" source="em9scLnAM5rUAsB2EZah-132" target="em9scLnAM5rUAsB2EZah-146">
          <mxGeometry relative="1" as="geometry" />
        </mxCell>
        <mxCell id="em9scLnAM5rUAsB2EZah-153" style="edgeStyle=none;curved=1;rounded=0;orthogonalLoop=1;jettySize=auto;html=1;exitX=1;exitY=0.5;exitDx=0;exitDy=0;entryX=0;entryY=0.5;entryDx=0;entryDy=0;fontSize=12;startSize=8;endSize=8;endArrow=none;startFill=0;" edge="1" parent="1" source="em9scLnAM5rUAsB2EZah-132" target="em9scLnAM5rUAsB2EZah-133">
          <mxGeometry relative="1" as="geometry" />
        </mxCell>
        <mxCell id="em9scLnAM5rUAsB2EZah-154" style="edgeStyle=none;curved=1;rounded=0;orthogonalLoop=1;jettySize=auto;html=1;exitX=1;exitY=0.5;exitDx=0;exitDy=0;entryX=0;entryY=0.5;entryDx=0;entryDy=0;fontSize=12;startSize=8;endSize=8;endArrow=none;startFill=0;" edge="1" parent="1" source="em9scLnAM5rUAsB2EZah-132" target="em9scLnAM5rUAsB2EZah-136">
          <mxGeometry relative="1" as="geometry" />
        </mxCell>
        <mxCell id="em9scLnAM5rUAsB2EZah-158" style="edgeStyle=none;curved=1;rounded=0;orthogonalLoop=1;jettySize=auto;html=1;exitX=0;exitY=0.5;exitDx=0;exitDy=0;fontSize=12;startSize=8;endSize=8;endArrow=none;startFill=0;" edge="1" parent="1" source="em9scLnAM5rUAsB2EZah-132" target="em9scLnAM5rUAsB2EZah-155">
          <mxGeometry relative="1" as="geometry" />
        </mxCell>
        <mxCell id="em9scLnAM5rUAsB2EZah-168" style="edgeStyle=none;curved=1;rounded=0;orthogonalLoop=1;jettySize=auto;html=1;exitX=1;exitY=0.5;exitDx=0;exitDy=0;entryX=0;entryY=0.5;entryDx=0;entryDy=0;fontSize=12;startSize=8;endSize=8;endArrow=none;startFill=0;" edge="1" parent="1" source="em9scLnAM5rUAsB2EZah-132" target="em9scLnAM5rUAsB2EZah-157">
          <mxGeometry relative="1" as="geometry" />
        </mxCell>
        <mxCell id="em9scLnAM5rUAsB2EZah-188" style="edgeStyle=none;curved=1;rounded=0;orthogonalLoop=1;jettySize=auto;html=1;exitX=0.5;exitY=0;exitDx=0;exitDy=0;entryX=0.5;entryY=1;entryDx=0;entryDy=0;fontSize=12;startSize=8;endSize=8;endArrow=none;startFill=0;" edge="1" parent="1" source="em9scLnAM5rUAsB2EZah-132" target="em9scLnAM5rUAsB2EZah-187">
          <mxGeometry relative="1" as="geometry" />
        </mxCell>
        <mxCell id="em9scLnAM5rUAsB2EZah-132" value="Order" style="rounded=0;whiteSpace=wrap;html=1;" vertex="1" parent="1">
          <mxGeometry x="579" y="1210" width="120" height="60" as="geometry" />
        </mxCell>
        <mxCell id="em9scLnAM5rUAsB2EZah-133" value="delivery time" style="ellipse;whiteSpace=wrap;html=1;" vertex="1" parent="1">
          <mxGeometry x="760" y="1400" width="120" height="80" as="geometry" />
        </mxCell>
        <mxCell id="em9scLnAM5rUAsB2EZah-134" value="real time location" style="ellipse;whiteSpace=wrap;html=1;" vertex="1" parent="1">
          <mxGeometry x="539" y="1440" width="120" height="80" as="geometry" />
        </mxCell>
        <mxCell id="em9scLnAM5rUAsB2EZah-135" value="special instructions" style="ellipse;whiteSpace=wrap;html=1;" vertex="1" parent="1">
          <mxGeometry x="480" y="1360" width="120" height="80" as="geometry" />
        </mxCell>
        <mxCell id="em9scLnAM5rUAsB2EZah-136" value="status" style="ellipse;whiteSpace=wrap;html=1;" vertex="1" parent="1">
          <mxGeometry x="760" y="1310" width="120" height="80" as="geometry" />
        </mxCell>
        <mxCell id="em9scLnAM5rUAsB2EZah-142" style="edgeStyle=none;curved=1;rounded=0;orthogonalLoop=1;jettySize=auto;html=1;exitX=0;exitY=0.5;exitDx=0;exitDy=0;entryX=1;entryY=0.5;entryDx=0;entryDy=0;fontSize=12;startSize=8;endSize=8;endArrow=none;startFill=0;" edge="1" parent="1" source="em9scLnAM5rUAsB2EZah-137" target="em9scLnAM5rUAsB2EZah-138">
          <mxGeometry relative="1" as="geometry" />
        </mxCell>
        <mxCell id="em9scLnAM5rUAsB2EZah-143" style="edgeStyle=none;curved=1;rounded=0;orthogonalLoop=1;jettySize=auto;html=1;exitX=0;exitY=0.5;exitDx=0;exitDy=0;entryX=1;entryY=0.5;entryDx=0;entryDy=0;fontSize=12;startSize=8;endSize=8;endArrow=none;startFill=0;" edge="1" parent="1" source="em9scLnAM5rUAsB2EZah-137" target="em9scLnAM5rUAsB2EZah-139">
          <mxGeometry relative="1" as="geometry" />
        </mxCell>
        <mxCell id="em9scLnAM5rUAsB2EZah-144" style="edgeStyle=none;curved=1;rounded=0;orthogonalLoop=1;jettySize=auto;html=1;exitX=0;exitY=0.5;exitDx=0;exitDy=0;entryX=0.5;entryY=0;entryDx=0;entryDy=0;fontSize=12;startSize=8;endSize=8;endArrow=none;startFill=0;" edge="1" parent="1" source="em9scLnAM5rUAsB2EZah-137" target="em9scLnAM5rUAsB2EZah-140">
          <mxGeometry relative="1" as="geometry" />
        </mxCell>
        <mxCell id="em9scLnAM5rUAsB2EZah-137" value="Charges" style="ellipse;whiteSpace=wrap;html=1;" vertex="1" parent="1">
          <mxGeometry x="429" y="1150" width="120" height="80" as="geometry" />
        </mxCell>
        <mxCell id="em9scLnAM5rUAsB2EZah-138" value="order item price" style="ellipse;whiteSpace=wrap;html=1;" vertex="1" parent="1">
          <mxGeometry x="350" y="1060" width="120" height="80" as="geometry" />
        </mxCell>
        <mxCell id="em9scLnAM5rUAsB2EZah-139" value="delivery fee" style="ellipse;whiteSpace=wrap;html=1;" vertex="1" parent="1">
          <mxGeometry x="239" y="1150" width="120" height="80" as="geometry" />
        </mxCell>
        <mxCell id="em9scLnAM5rUAsB2EZah-140" value="taxes" style="ellipse;whiteSpace=wrap;html=1;" vertex="1" parent="1">
          <mxGeometry x="339" y="1220" width="120" height="80" as="geometry" />
        </mxCell>
        <mxCell id="em9scLnAM5rUAsB2EZah-146" value="&lt;u&gt;Order ID&lt;/u&gt;" style="ellipse;whiteSpace=wrap;html=1;" vertex="1" parent="1">
          <mxGeometry x="619" y="1370" width="120" height="80" as="geometry" />
        </mxCell>
        <mxCell id="em9scLnAM5rUAsB2EZah-159" style="edgeStyle=none;curved=1;rounded=0;orthogonalLoop=1;jettySize=auto;html=1;exitX=0;exitY=1;exitDx=0;exitDy=0;entryX=1;entryY=0.5;entryDx=0;entryDy=0;fontSize=12;startSize=8;endSize=8;endArrow=none;startFill=0;" edge="1" parent="1" source="em9scLnAM5rUAsB2EZah-155" target="em9scLnAM5rUAsB2EZah-98">
          <mxGeometry relative="1" as="geometry" />
        </mxCell>
        <mxCell id="em9scLnAM5rUAsB2EZah-155" value="Delivers" style="rhombus;whiteSpace=wrap;html=1;" vertex="1" parent="1">
          <mxGeometry x="450" y="1280" width="80" height="80" as="geometry" />
        </mxCell>
        <mxCell id="em9scLnAM5rUAsB2EZah-163" style="edgeStyle=none;curved=1;rounded=0;orthogonalLoop=1;jettySize=auto;html=1;exitX=1;exitY=1;exitDx=0;exitDy=0;entryX=0.5;entryY=0;entryDx=0;entryDy=0;fontSize=12;startSize=8;endSize=8;endArrow=none;startFill=0;" edge="1" parent="1" source="em9scLnAM5rUAsB2EZah-156" target="em9scLnAM5rUAsB2EZah-132">
          <mxGeometry relative="1" as="geometry" />
        </mxCell>
        <mxCell id="em9scLnAM5rUAsB2EZah-156" value="Seller" style="rhombus;whiteSpace=wrap;html=1;" vertex="1" parent="1">
          <mxGeometry x="459" y="1000" width="80" height="80" as="geometry" />
        </mxCell>
        <mxCell id="em9scLnAM5rUAsB2EZah-157" value="Buyer" style="rhombus;whiteSpace=wrap;html=1;" vertex="1" parent="1">
          <mxGeometry x="950" y="1280" width="80" height="80" as="geometry" />
        </mxCell>
        <mxCell id="em9scLnAM5rUAsB2EZah-160" value="(1)" style="text;html=1;align=center;verticalAlign=middle;whiteSpace=wrap;rounded=0;" vertex="1" parent="1">
          <mxGeometry x="530" y="1280" width="60" height="30" as="geometry" />
        </mxCell>
        <mxCell id="em9scLnAM5rUAsB2EZah-161" value="(1)" style="text;html=1;align=center;verticalAlign=middle;whiteSpace=wrap;rounded=0;" vertex="1" parent="1">
          <mxGeometry x="380" y="1380" width="60" height="30" as="geometry" />
        </mxCell>
        <mxCell id="em9scLnAM5rUAsB2EZah-164" value="(1)" style="text;html=1;align=center;verticalAlign=middle;whiteSpace=wrap;rounded=0;" vertex="1" parent="1">
          <mxGeometry x="449" y="875" width="60" height="30" as="geometry" />
        </mxCell>
        <mxCell id="em9scLnAM5rUAsB2EZah-165" value="(M)" style="text;html=1;align=center;verticalAlign=middle;whiteSpace=wrap;rounded=0;" vertex="1" parent="1">
          <mxGeometry x="609" y="1160" width="60" height="30" as="geometry" />
        </mxCell>
        <mxCell id="em9scLnAM5rUAsB2EZah-172" value="" style="endArrow=none;html=1;rounded=0;fontSize=12;startSize=8;endSize=8;curved=1;exitX=1;exitY=0.5;exitDx=0;exitDy=0;" edge="1" parent="1" source="em9scLnAM5rUAsB2EZah-157">
          <mxGeometry width="50" height="50" relative="1" as="geometry">
            <mxPoint x="850" y="1230" as="sourcePoint" />
            <mxPoint x="1100" y="1230" as="targetPoint" />
          </mxGeometry>
        </mxCell>
        <mxCell id="em9scLnAM5rUAsB2EZah-173" value="" style="endArrow=none;html=1;rounded=0;fontSize=12;startSize=8;endSize=8;curved=1;" edge="1" parent="1">
          <mxGeometry width="50" height="50" relative="1" as="geometry">
            <mxPoint x="1101" y="560" as="sourcePoint" />
            <mxPoint x="1101" y="1230" as="targetPoint" />
          </mxGeometry>
        </mxCell>
        <mxCell id="em9scLnAM5rUAsB2EZah-174" value="" style="endArrow=none;html=1;rounded=0;fontSize=12;startSize=8;endSize=8;curved=1;" edge="1" parent="1">
          <mxGeometry width="50" height="50" relative="1" as="geometry">
            <mxPoint x="440" y="260" as="sourcePoint" />
            <mxPoint x="1100" y="560" as="targetPoint" />
          </mxGeometry>
        </mxCell>
        <mxCell id="em9scLnAM5rUAsB2EZah-175" value="(1)" style="text;html=1;align=center;verticalAlign=middle;whiteSpace=wrap;rounded=0;" vertex="1" parent="1">
          <mxGeometry x="429" y="280" width="60" height="30" as="geometry" />
        </mxCell>
        <mxCell id="em9scLnAM5rUAsB2EZah-176" value="(M)" style="text;html=1;align=center;verticalAlign=middle;whiteSpace=wrap;rounded=0;" vertex="1" parent="1">
          <mxGeometry x="700" y="1210" width="60" height="30" as="geometry" />
        </mxCell>
        <mxCell id="em9scLnAM5rUAsB2EZah-182" style="edgeStyle=none;curved=1;rounded=0;orthogonalLoop=1;jettySize=auto;html=1;exitX=0.5;exitY=1;exitDx=0;exitDy=0;entryX=0.5;entryY=0;entryDx=0;entryDy=0;fontSize=12;startSize=8;endSize=8;endArrow=none;startFill=0;" edge="1" parent="1" source="em9scLnAM5rUAsB2EZah-177" target="em9scLnAM5rUAsB2EZah-181">
          <mxGeometry relative="1" as="geometry" />
        </mxCell>
        <mxCell id="em9scLnAM5rUAsB2EZah-183" style="edgeStyle=none;curved=1;rounded=0;orthogonalLoop=1;jettySize=auto;html=1;exitX=1;exitY=0.5;exitDx=0;exitDy=0;fontSize=12;startSize=8;endSize=8;endArrow=none;startFill=0;" edge="1" parent="1" source="em9scLnAM5rUAsB2EZah-177" target="em9scLnAM5rUAsB2EZah-180">
          <mxGeometry relative="1" as="geometry" />
        </mxCell>
        <mxCell id="em9scLnAM5rUAsB2EZah-177" value="Order Item" style="rounded=0;whiteSpace=wrap;html=1;" vertex="1" parent="1">
          <mxGeometry x="800" y="1000" width="120" height="60" as="geometry" />
        </mxCell>
        <mxCell id="em9scLnAM5rUAsB2EZah-178" value="&lt;u&gt;Order Item ID&lt;/u&gt;" style="ellipse;whiteSpace=wrap;html=1;" vertex="1" parent="1">
          <mxGeometry x="880" y="900" width="120" height="80" as="geometry" />
        </mxCell>
        <mxCell id="em9scLnAM5rUAsB2EZah-179" value="" style="endArrow=none;html=1;rounded=0;fontSize=12;startSize=8;endSize=8;curved=1;entryX=0.5;entryY=0;entryDx=0;entryDy=0;exitX=0.5;exitY=1;exitDx=0;exitDy=0;" edge="1" parent="1" source="em9scLnAM5rUAsB2EZah-178" target="em9scLnAM5rUAsB2EZah-177">
          <mxGeometry width="50" height="50" relative="1" as="geometry">
            <mxPoint x="918.33" y="975" as="sourcePoint" />
            <mxPoint x="930" y="1000" as="targetPoint" />
          </mxGeometry>
        </mxCell>
        <mxCell id="em9scLnAM5rUAsB2EZah-180" value="quantity" style="ellipse;whiteSpace=wrap;html=1;" vertex="1" parent="1">
          <mxGeometry x="940" y="990" width="120" height="80" as="geometry" />
        </mxCell>
        <mxCell id="em9scLnAM5rUAsB2EZah-181" value="name" style="ellipse;whiteSpace=wrap;html=1;" vertex="1" parent="1">
          <mxGeometry x="890" y="1080" width="120" height="80" as="geometry" />
        </mxCell>
        <mxCell id="em9scLnAM5rUAsB2EZah-186" style="edgeStyle=none;curved=1;rounded=0;orthogonalLoop=1;jettySize=auto;html=1;exitX=0.5;exitY=1;exitDx=0;exitDy=0;fontSize=12;startSize=8;endSize=8;entryX=0.5;entryY=0;entryDx=0;entryDy=0;endArrow=none;startFill=0;" edge="1" parent="1" source="em9scLnAM5rUAsB2EZah-184" target="em9scLnAM5rUAsB2EZah-177">
          <mxGeometry relative="1" as="geometry">
            <mxPoint x="859.9999999999998" y="1000" as="targetPoint" />
          </mxGeometry>
        </mxCell>
        <mxCell id="em9scLnAM5rUAsB2EZah-184" value="Type" style="rhombus;whiteSpace=wrap;html=1;" vertex="1" parent="1">
          <mxGeometry x="699" y="900" width="80" height="80" as="geometry" />
        </mxCell>
        <mxCell id="em9scLnAM5rUAsB2EZah-185" style="edgeStyle=none;curved=1;rounded=0;orthogonalLoop=1;jettySize=auto;html=1;exitX=0.5;exitY=1;exitDx=0;exitDy=0;entryX=0.5;entryY=0;entryDx=0;entryDy=0;fontSize=12;startSize=8;endSize=8;endArrow=none;startFill=0;" edge="1" parent="1" source="em9scLnAM5rUAsB2EZah-70" target="em9scLnAM5rUAsB2EZah-184">
          <mxGeometry relative="1" as="geometry" />
        </mxCell>
        <mxCell id="em9scLnAM5rUAsB2EZah-189" style="edgeStyle=none;curved=1;rounded=0;orthogonalLoop=1;jettySize=auto;html=1;exitX=0.5;exitY=0;exitDx=0;exitDy=0;entryX=0;entryY=0.5;entryDx=0;entryDy=0;fontSize=12;startSize=8;endSize=8;endArrow=none;startFill=0;" edge="1" parent="1" source="em9scLnAM5rUAsB2EZah-187" target="em9scLnAM5rUAsB2EZah-177">
          <mxGeometry relative="1" as="geometry" />
        </mxCell>
        <mxCell id="em9scLnAM5rUAsB2EZah-187" value="Contains" style="rhombus;whiteSpace=wrap;html=1;" vertex="1" parent="1">
          <mxGeometry x="699" y="1060" width="80" height="80" as="geometry" />
        </mxCell>
        <mxCell id="em9scLnAM5rUAsB2EZah-190" value="(1)" style="text;html=1;align=center;verticalAlign=middle;whiteSpace=wrap;rounded=0;" vertex="1" parent="1">
          <mxGeometry x="659" y="1180" width="60" height="30" as="geometry" />
        </mxCell>
        <mxCell id="em9scLnAM5rUAsB2EZah-191" value="(M)" style="text;html=1;align=center;verticalAlign=middle;whiteSpace=wrap;rounded=0;" vertex="1" parent="1">
          <mxGeometry x="750" y="1045" width="60" height="30" as="geometry" />
        </mxCell>
        <mxCell id="em9scLnAM5rUAsB2EZah-192" value="(1)" style="text;html=1;align=center;verticalAlign=middle;whiteSpace=wrap;rounded=0;" vertex="1" parent="1">
          <mxGeometry x="739" y="875" width="60" height="30" as="geometry" />
        </mxCell>
        <mxCell id="em9scLnAM5rUAsB2EZah-193" value="(1)" style="text;html=1;align=center;verticalAlign=middle;whiteSpace=wrap;rounded=0;" vertex="1" parent="1">
          <mxGeometry x="799" y="960" width="60" height="30" as="geometry" />
        </mxCell>
      </root>
    </mxGraphModel>
  </diagram>
</mxfile>
